<svg width="27" height="27" viewBox="0 0 27 27" fill="none" xmlns="http://www.w3.org/2000/svg">
<g clip-path="url(#clip0_259_6)">
<path d="M15.0799 13.51C14.4099 12.73 12.1899 6.72005 6.6999 7.68005C0.509896 8.77005 4.3799 -0.639953 7.0699 0.0300466C8.5299 0.390047 8.8899 3.31005 11.0799 1.12005C12.7299 -0.529953 15.4499 0.390047 15.8099 2.94005C16.1699 5.49005 22.3699 2.21005 23.4599 8.40005C24.5499 14.59 19.8199 18.97 15.0799 13.51Z" fill="#FF5745"/>
<path d="M14.3502 21.89C15.0802 22.25 15.8102 25.17 14.3502 26.62C12.7002 28.27 9.98018 24.07 8.16018 23.34C6.94018 22.85 8.53018 18.97 14.3502 21.89Z" fill="#FFA31D"/>
</g>
<defs>
<clipPath id="clip0_259_6">
<rect width="27" height="27" fill="white"/>
</clipPath>
</defs>
</svg>
